<?xml version="1.0" standalone="no"?>
<!DOCTYPE svg PUBLIC "-//W3C//DTD SVG 20010904//EN"
 "http://www.w3.org/TR/2001/REC-SVG-20010904/DTD/svg10.dtd">
<svg version="1.0" xmlns="http://www.w3.org/2000/svg"
 width="96.000000pt" height="96.000000pt" viewBox="0 0 96.000000 96.000000"
 preserveAspectRatio="xMidYMid meet">

<g transform="translate(0.000000,96.000000) scale(0.100000,-0.100000)"
fill="#000000" stroke="none">
<path d="M124 805 c-40 -27 -45 -59 -42 -290 3 -212 4 -220 23 -220 19 0 20 8
25 233 4 192 8 234 20 242 9 6 149 10 330 10 181 0 321 -4 330 -10 12 -8 16
-50 20 -242 5 -225 6 -233 25 -233 19 0 20 8 23 220 3 231 -2 263 -42 290 -31
22 -681 22 -712 0z"/>
<path d="M462 523 c-61 -166 -69 -197 -54 -207 18 -11 32 16 90 173 67 176 72
201 44 201 -15 0 -31 -35 -80 -167z"/>
<path d="M280 554 l-55 -56 54 -49 c30 -27 60 -49 67 -49 29 0 24 25 -15 64
l-41 42 40 39 c30 30 37 42 29 52 -7 7 -14 13 -18 13 -4 0 -31 -25 -61 -56z"/>
<path d="M600 595 c-10 -11 -4 -21 30 -53 l42 -39 -42 -40 c-41 -38 -47 -63
-15 -63 7 0 38 22 67 49 l53 49 -45 47 c-57 59 -74 69 -90 50z"/>
<path d="M10 184 c0 -46 14 -70 50 -89 43 -22 797 -22 840 0 36 19 50 43 50
89 l0 36 -470 0 -470 0 0 -36z m900 -11 c0 -3 -7 -15 -17 -25 -15 -17 -41 -18
-411 -18 -354 0 -397 2 -414 17 -10 9 -18 20 -18 25 0 4 193 8 430 8 237 0
430 -3 430 -7z"/>
</g>
</svg>
