<?xml version="1.0" standalone="no"?>
<!DOCTYPE svg PUBLIC "-//W3C//DTD SVG 20010904//EN"
 "http://www.w3.org/TR/2001/REC-SVG-20010904/DTD/svg10.dtd">
<svg version="1.0" xmlns="http://www.w3.org/2000/svg"
 width="96.000000pt" height="96.000000pt" viewBox="0 0 96.000000 96.000000"
 preserveAspectRatio="xMidYMid meet">

<g transform="translate(0.000000,96.000000) scale(0.100000,-0.100000)"
fill="#000000" stroke="none">
<path d="M790 885 l-54 -55 -329 0 c-207 0 -335 -4 -348 -10 -18 -10 -19 -24
-19 -268 0 -187 3 -261 12 -270 8 -8 58 -12 160 -12 l148 0 0 -40 c0 -38 -2
-40 -30 -40 -36 0 -80 -39 -80 -70 0 -20 5 -20 230 -20 225 0 230 0 230 20 0
31 -44 70 -80 70 -28 0 -30 2 -30 40 l0 40 148 0 c102 0 152 4 160 12 9 9 12
82 12 267 1 209 3 260 15 275 34 46 -1 116 -59 116 -25 0 -43 -11 -86 -55z
m118 -15 c2 -20 -18 -45 -103 -130 l-105 -105 -27 28 -28 27 105 105 c85 85
110 105 130 103 18 -2 26 -10 28 -28z m-228 -88 c0 -16 -167 -172 -184 -172
-22 0 -54 -55 -62 -107 l-6 -43 -145 0 c-132 0 -144 -1 -141 -17 3 -16 20 -18
173 -21 214 -3 258 7 297 63 14 22 81 94 147 160 l121 120 0 -193 0 -192 -400
0 -400 0 0 205 0 205 300 0 c165 0 300 -4 300 -8z m-35 -201 c-20 -20 -29 -23
-42 -15 -35 22 -39 42 -13 69 l24 25 28 -27 28 -27 -25 -25z m-81 -30 c23 -24
26 -32 17 -49 -11 -21 -20 -25 -80 -37 l-34 -7 6 42 c5 42 30 80 52 80 6 0 24
-13 39 -29z m316 -221 c0 -20 -7 -20 -400 -20 -393 0 -400 0 -400 20 0 20 7
20 400 20 393 0 400 0 400 -20z m-320 -100 l0 -40 -80 0 -80 0 0 40 0 40 80 0
80 0 0 -40z m95 -90 c4 -7 -57 -10 -174 -10 -114 0 -181 4 -181 10 0 6 65 10
174 10 106 0 177 -4 181 -10z"/>
</g>
</svg>
