<?xml version="1.0" standalone="no"?>
<!DOCTYPE svg PUBLIC "-//W3C//DTD SVG 20010904//EN"
 "http://www.w3.org/TR/2001/REC-SVG-20010904/DTD/svg10.dtd">
<svg version="1.0" xmlns="http://www.w3.org/2000/svg"
 width="96.000000pt" height="96.000000pt" viewBox="0 0 96.000000 96.000000"
 preserveAspectRatio="xMidYMid meet">

<g transform="translate(0.000000,96.000000) scale(0.100000,-0.100000)"
fill="#000000" stroke="none">
<path d="M474 771 c-136 -62 -195 -211 -136 -343 l21 -47 -35 -22 c-97 -59
-194 -167 -194 -214 0 -27 29 -55 57 -55 31 0 112 68 173 146 30 38 55 70 56
72 1 2 18 -8 39 -22 20 -14 52 -28 71 -32 57 -11 158 0 189 20 39 26 18 40
-30 20 -28 -11 -60 -15 -111 -12 -62 3 -78 8 -117 36 l-45 32 -49 -63 c-99
-124 -171 -183 -195 -159 -16 16 1 51 45 100 35 37 66 62 175 138 2 2 -6 29
-18 61 -33 86 -31 160 6 219 44 70 101 107 174 112 174 13 297 -137 235 -285
-22 -52 -42 -72 -100 -99 -62 -29 -85 -30 -85 -4 0 12 7 20 16 20 25 0 74 56
74 85 0 35 -25 70 -60 85 -29 12 -30 14 -30 88 l0 75 -42 -6 c-94 -13 -106
-111 -18 -147 29 -12 30 -14 30 -81 0 -38 -3 -69 -6 -69 -4 0 -21 9 -40 20
-21 14 -35 17 -39 10 -10 -16 12 -38 51 -52 29 -10 34 -17 34 -45 0 -31 2 -33
38 -33 46 0 128 38 164 76 80 86 77 233 -8 318 -71 71 -202 97 -290 57z m96
-131 l0 -51 -30 16 c-33 17 -39 45 -14 69 30 31 44 20 44 -34z m68 -120 c26
-25 28 -57 5 -82 -31 -34 -43 -23 -43 42 0 33 4 60 8 60 5 0 18 -9 30 -20z"/>
</g>
</svg>
