<?xml version="1.0" standalone="no"?>
<!DOCTYPE svg PUBLIC "-//W3C//DTD SVG 20010904//EN"
 "http://www.w3.org/TR/2001/REC-SVG-20010904/DTD/svg10.dtd">
<svg version="1.0" xmlns="http://www.w3.org/2000/svg"
 width="96.000000pt" height="96.000000pt" viewBox="0 0 96.000000 96.000000"
 preserveAspectRatio="xMidYMid meet">

<g transform="translate(0.000000,96.000000) scale(0.100000,-0.100000)"
fill="#000000" stroke="none">
<path d="M69 831 c-24 -19 -24 -22 -24 -194 0 -158 2 -177 19 -196 12 -13 31
-21 52 -21 39 0 60 -19 69 -62 8 -38 22 -58 40 -58 7 0 40 23 73 50 33 28 63
50 66 50 3 0 6 -30 6 -67 0 -38 4 -73 8 -79 16 -24 54 -34 133 -34 l82 0 69
-57 c77 -62 94 -63 113 -6 13 40 34 63 56 63 33 0 67 22 79 50 7 18 10 80 8
175 -4 191 2 185 -179 185 l-129 0 0 85 c0 78 -2 88 -25 110 l-24 25 -234 0
c-216 0 -237 -2 -258 -19z m503 -18 c16 -14 18 -34 18 -179 0 -200 4 -194
-118 -194 -96 0 -98 -1 -189 -78 -29 -24 -57 -41 -62 -38 -6 4 -13 22 -17 42
-8 41 -45 74 -85 74 -51 0 -59 26 -59 197 0 209 -22 193 267 193 197 0 229 -2
245 -17z m312 -225 c13 -18 16 -52 16 -165 0 -130 -2 -145 -20 -163 -11 -11
-33 -20 -48 -20 -35 0 -60 -25 -73 -74 -5 -20 -14 -36 -18 -36 -5 0 -39 25
-76 55 l-67 55 -84 0 c-120 0 -124 3 -124 100 l0 80 89 0 c54 0 93 4 97 11 3
6 14 -2 26 -21 21 -35 12 -60 -23 -60 -10 0 -21 -5 -24 -11 -13 -21 5 -21 46
-1 30 15 46 18 55 11 18 -15 74 -29 74 -18 0 5 -16 15 -36 24 -20 8 -34 18
-32 22 3 5 11 23 18 41 9 19 22 32 32 32 10 0 18 5 18 10 0 6 -18 10 -40 10
-39 0 -40 1 -40 35 0 19 -4 35 -10 35 -5 0 -10 -16 -10 -35 0 -19 -4 -35 -10
-35 -6 0 -10 30 -10 70 l0 70 129 0 c123 0 131 -1 145 -22z m-214 -150 c-1
-15 -28 -54 -34 -47 -6 7 -26 47 -26 53 0 3 14 6 30 6 18 0 30 -5 30 -12z"/>
<path d="M272 717 c-19 -20 -22 -35 -22 -111 0 -55 4 -85 10 -81 6 3 10 22 10
41 l0 34 60 0 60 0 0 -41 c0 -24 4 -38 10 -34 16 10 12 142 -5 174 -24 48 -87
57 -123 18z m99 -18 c13 -13 19 -30 17 -47 -3 -25 -6 -27 -61 -30 -41 -2 -59
1 -63 11 -6 17 13 69 29 79 22 14 57 8 78 -13z"/>
</g>
</svg>
